<?xml version="1.0" encoding="UTF-8" standalone="no"?>
<svg
   width="900"
   height="900"
   viewBox="0 0 900 900"
   version="1.1"
   xml:space="preserve"
   id="SVGRoot"
   xmlns="http://www.w3.org/2000/svg"
   xmlns:svg="http://www.w3.org/2000/svg"><defs
   id="defs48" />

<style
   type="text/css"
   id="style1">
g.prefab path {
  vector-effect:non-scaling-stroke;
  -inkscape-stroke:hairline;
  fill: none;
  fill-opacity: 1;
  stroke-opacity: 1;
  stroke: #00349c;
}
</style>

<path
   style="fill:none;fill-opacity:1;stroke:#000000;stroke-width:22.3313;stroke-linejoin:round;stroke-dasharray:none;stroke-opacity:1"
   d="m 339.88021,356.23026 53.28924,55.42813 z"
   id="path116" /><path
   style="fill:none;fill-opacity:1;stroke:#000000;stroke-width:23.0813;stroke-linejoin:round;stroke-dasharray:none;stroke-opacity:1"
   d="m 337.4561,599.32738 55.49227,-56.77929 z"
   id="path118" /><path
   style="fill:#000000;fill-opacity:1;stroke:#000000;stroke-width:1.27514;stroke-linejoin:round;stroke-dasharray:none;stroke-opacity:1"
   d="m 496.00404,640.00972 c 0,0 72.5035,5.07085 84.58743,-60.85012 12.0839,-65.92098 59.41258,49.69426 27.1888,51.72261 -32.22377,2.02835 94.65734,-3.04251 94.65734,-3.04251 0,0 16.1119,-78.091 -29.20279,-104.45939 -45.3147,-26.36839 90.62936,-20.28338 90.62936,-20.28338 l -5.03495,-27.38255 -108.75526,-54.76513 -146.01399,10.1417 -1.00699,88.23268 c 0,0 67.46852,6.08502 61.42657,14.19837 -6.04195,8.11334 -30.20979,72.006 -62.43355,75.0485 -32.22378,3.0425 -6.04197,31.43922 -6.04197,31.43922 z"
   id="path120" /><path
   style="fill:none;fill-opacity:1;stroke:#000000;stroke-width:38.254;stroke-linejoin:round;stroke-dasharray:none;stroke-opacity:1"
   d="M 469.8144,754.20867 440.30185,736.42015 176.65642,875.76362 232.73026,570.39385 20.239885,353.9667 306.51163,303.56588 440.30185,21.914171 577.04333,304.55414 876.10384,351.00197 770.8424,455.75665"
   id="path122" /><path
   style="fill:none;fill-opacity:1;stroke:#000000;stroke-width:38.254;stroke-linejoin:round;stroke-dasharray:none;stroke-opacity:1"
   d="m 664.17304,629.69664 h 45.36172 l 45.36171,44.77968 v 65.67688 l 72.32058,19.1296 V 876.48248 H 498.8548 V 772.99163 l 66.4533,-37.87454 v -60.64077 l 44.8963,-44.32027 h 54.97668 z"
   id="path123" /><path
   style="fill:none;fill-opacity:1;stroke:#000000;stroke-width:63.7568;stroke-linecap:butt;stroke-linejoin:round;stroke-dasharray:none;stroke-opacity:1"
   d="m 462.77326,430.07677 v 94.3177"
   id="path124" /><path
   style="fill:none;fill-opacity:1;stroke:#000000;stroke-width:23.9049;stroke-linecap:round;stroke-linejoin:round;stroke-dasharray:none;stroke-opacity:1"
   d="M 360.27807,481.40786 H 268.26226"
   id="path125" /></svg>
